<?xml version="1.0" encoding="UTF-8"?> <svg xmlns="http://www.w3.org/2000/svg" width="156.314" height="67.396" viewBox="0 0 156.314 67.396"><g transform="translate(0.254 28.243)"><path d="M70.351,67.948c-18.653,10.75-26.69-2.1-34.7-2.1a14.091,14.091,0,0,0-9.609,3.809c.526,4.545,3.714,9.33,8.817,12.461a18.552,18.552,0,0,0,13.481,2.687,19.5,19.5,0,0,1-10.534.627c-8.005-1.648-13.779-7.466-13.767-13.5a15.4,15.4,0,0,0-2.884,8.994,15.941,15.941,0,0,0,6.186,12.48c13.539,10.991,44.792,3.7,43.005-25.461" transform="translate(-21.16 -59.119)" fill="#a4c307"></path><path d="M125.472,60.127a6.2,6.2,0,0,0-5.026,2.237,8.968,8.968,0,0,0-1.863,5.926,8.783,8.783,0,0,0,1.863,5.914,6.108,6.108,0,0,0,4.874,2.18,6.209,6.209,0,0,0,4.937-2.117,8.716,8.716,0,0,0,1.819-5.876,9.4,9.4,0,0,0-1.768-6.091,5.9,5.9,0,0,0-4.836-2.174m-.266,21.157a12.826,12.826,0,0,1-9.343-3.518,12.274,12.274,0,0,1-3.613-9.178A12.629,12.629,0,0,1,125.63,55.24,12.123,12.123,0,0,1,138.4,68.081a12.52,12.52,0,0,1-13.2,13.2" transform="translate(-54.515 -55.234)" fill="#0b71b3"></path><path d="M178.678,79.943a18.585,18.585,0,0,1-7.631,1.331q-6.151,0-9.66-3.41a12.045,12.045,0,0,1-3.518-9.076,12.893,12.893,0,0,1,3.955-9.8,14.3,14.3,0,0,1,10.268-3.759,20.257,20.257,0,0,1,6.592.932v5.457a12.216,12.216,0,0,0-6.11-1.509,8.367,8.367,0,0,0-6.066,2.225,8.014,8.014,0,0,0-2.307,6.04,7.481,7.481,0,0,0,8.037,7.986,13.117,13.117,0,0,0,6.446-1.616v5.2Z" transform="translate(-71.22 -55.23)" fill="#0b71b3"></path></g><path d="M214.05,81.092H198.04V55.91h15.4v4.621h-9.387v5.6h8.734v4.6h-8.734V76.49h10Z" transform="translate(-85.675 -27.236)" fill="#0b71b3"></path><path d="M242.327,71.134l-2.871-8.462a10.287,10.287,0,0,1-.444-2.263h-.146A9.276,9.276,0,0,1,238.4,62.6l-2.909,8.531Zm9.831,9.957H245.6l-1.9-5.6h-9.495l-1.882,5.6H225.81l9.716-25.182h7.131Z" transform="translate(-95.844 -27.236)" fill="#0b71b3"></path><path d="M84.6,59.246V45.41l2,1.147v4.792l.843.666,3.106,2.472.025,2.744c.723-.323,1.464-.685,2.218-1.071L92.781,53.4l-3.936-3.137v-5L82.38,41.55V59.658c.723-.1,1.464-.235,2.225-.412" transform="translate(-43.324 -21.977)" fill="#ec9001"></path><path d="M64.588,50.556V21.438h6.18v29.98a26.6,26.6,0,0,0,3.125-.158V18.32H61.47V49.587c1,.355,2.035.691,3.118.97" transform="translate(-35.667 -13.471)" fill="#0b71b3"></path><path d="M41.941,42.678a10.375,10.375,0,0,1,2.18.254V26.877l4.19-2.44,1.109-.647V15.031l1.908-.83V45.613c.723.3,1.464.6,2.231.894V10.67l-.913.526-5.457,2.377v8.943l-5.3,3.08V42.685a.158.158,0,0,1,.051-.006" transform="translate(-28.497 -10.67)" fill="#a4c307"></path><path d="M23.878,55.359V37.225h6.18V51.847a14.913,14.913,0,0,1,3.125-.532V34.1H20.76V59.523a15.034,15.034,0,0,1,3.118-4.164" transform="translate(-20.76 -19.249)" fill="#0b71b3"></path><path d="M123.967,38.836a7.378,7.378,0,0,1-3.733.862,5.394,5.394,0,0,1-3.9-1.369,5,5,0,0,1-1.426-3.771,5.256,5.256,0,0,1,1.559-3.936,5.681,5.681,0,0,1,4.145-1.521,8.3,8.3,0,0,1,2.871.45v2.168a5.673,5.673,0,0,0-2.9-.691,3.127,3.127,0,0,0-2.345.932,3.425,3.425,0,0,0-.9,2.491,3.454,3.454,0,0,0,.811,2.447,2.869,2.869,0,0,0,2.193.862,3.07,3.07,0,0,0,1.318-.235v-2h-2.054V33.676h4.361Z" transform="translate(-55.235 -17.419)" fill="#0b71b3"></path><path d="M136.773,35.958a1.987,1.987,0,0,0-.951-.222,1.349,1.349,0,0,0-1.147.539,2.343,2.343,0,0,0-.412,1.47v3.492H132V33.917h2.256v1.356h.025a1.958,1.958,0,0,1,1.933-1.483,1.33,1.33,0,0,1,.558.089Z" transform="translate(-61.493 -19.136)" fill="#0b71b3"></path><path d="M144.174,35.447a1.5,1.5,0,0,0-1.242.545,2.455,2.455,0,0,0-.444,1.559c0,1.407.564,2.111,1.7,2.111,1.084,0,1.616-.723,1.616-2.168.013-1.369-.532-2.047-1.629-2.047m-.051,5.945a3.937,3.937,0,0,1-2.878-1.027,3.733,3.733,0,0,1-1.046-2.789,3.7,3.7,0,0,1,1.09-2.84,4.122,4.122,0,0,1,2.941-1.027,3.88,3.88,0,0,1,2.859,1.027,3.65,3.65,0,0,1,1.033,2.713,3.859,3.859,0,0,1-1.071,2.884,4,4,0,0,1-2.928,1.058" transform="translate(-64.496 -19.107)" fill="#0b71b3"></path><path d="M161.89,41.311h-2.256V40.2H159.6a2.55,2.55,0,0,1-2.237,1.293q-2.548,0-2.548-3.08V33.99h2.256V38.2c0,1.033.412,1.553,1.23,1.553a1.215,1.215,0,0,0,.976-.425,1.722,1.722,0,0,0,.361-1.154V33.99h2.256Z" transform="translate(-69.846 -19.209)" fill="#0b71b3"></path><path d="M171.208,37.354v.589a1.851,1.851,0,0,0,.4,1.23,1.291,1.291,0,0,0,1.052.482,1.4,1.4,0,0,0,1.2-.6,2.879,2.879,0,0,0,.425-1.692c0-1.287-.5-1.933-1.5-1.933a1.394,1.394,0,0,0-1.128.526,2.1,2.1,0,0,0-.444,1.394m.063,3h-.025v4.215H168.99V33.887h2.256v1.1h.025a2.881,2.881,0,0,1,4.557-.3,4.177,4.177,0,0,1,.773,2.656,4.525,4.525,0,0,1-.9,2.941,2.954,2.954,0,0,1-2.409,1.109,2.29,2.29,0,0,1-2.022-1.033" transform="translate(-75.038 -19.107)" fill="#0b71b3"></path><path d="M187.538,36.807c0-1.046-.425-1.572-1.268-1.572a1.234,1.234,0,0,0-.944.45,2.1,2.1,0,0,0-.482,1.122Zm2.1,1.388h-4.773c.076,1.065.748,1.6,2,1.6a3.862,3.862,0,0,0,2.123-.577v1.635a5.581,5.581,0,0,1-2.637.545,3.41,3.41,0,0,1-3.733-3.721,3.927,3.927,0,0,1,1.059-2.89,3.523,3.523,0,0,1,2.605-1.065,3.2,3.2,0,0,1,2.478.951,3.666,3.666,0,0,1,.875,2.58Z" transform="translate(-80.029 -19.11)" fill="#0b71b3"></path></svg> 